<?xml version="1.0" encoding="utf-8"?>
<!-- Generator: Adobe Illustrator 25.1.0, SVG Export Plug-In . SVG Version: 6.00 Build 0)  -->
<svg version="1.1" id="Layer_1" xmlns="http://www.w3.org/2000/svg" xmlns:xlink="http://www.w3.org/1999/xlink" x="0px" y="0px"
	 viewBox="0 0 245.59 196.53" style="enable-background:new 0 0 245.59 196.53;" xml:space="preserve">
<style type="text/css">
	.st0{fill:#01404F;}
	.st1{fill:#EE3183;}
	.st2{fill:#A11C63;}
	.st3{fill:#FFFFFF;}
	.st4{font-family:'BrandonText-Medium';}
	.st5{font-size:16.0308px;}
</style>
<g>
	<g>
		<path class="st0" d="M146.29,84.46l-11.71-11.13c-0.25-0.24-0.57-0.37-0.91-0.37h-24.8c-1.6,0-2.9,1.3-2.9,2.9v44.8
			c0,1.6,1.3,2.9,2.9,2.9h34.8c1.6,0,2.9-1.3,2.9-2.9l0.12-35.27C146.69,85.05,146.55,84.71,146.29,84.46z M134.46,74.59l10.42,9.91
			h-9.29c-0.62,0-1.13-0.51-1.13-1.13V74.59z M143.67,122.57h-34.8c-1.05,0-1.9-0.85-1.9-1.9v-44.8c0-1.05,0.85-1.9,1.9-1.9h24.58
			v9.41c0,1.18,0.96,2.13,2.13,2.13h10.1l-0.12,35.16C145.57,121.71,144.71,122.57,143.67,122.57z"/>
		<path class="st1" d="M137.17,117.64h-36.11c-0.92,0-1.66-0.74-1.66-1.66v-11.75c0-0.92,0.74-1.66,1.66-1.66h36.11
			c0.92,0,1.66,0.74,1.66,1.66v11.75C138.83,116.9,138.09,117.64,137.17,117.64z"/>
	</g>
	<path class="st2" d="M137.08,118.14h-35.92c-1.24,0-2.26-1.01-2.26-2.26v-11.56c0-1.24,1.01-2.25,2.26-2.25h35.92
		c1.24,0,2.25,1.01,2.25,2.25v11.56C139.33,117.13,138.32,118.14,137.08,118.14z M101.16,103.07c-0.69,0-1.25,0.56-1.25,1.25v11.56
		c0,0.69,0.56,1.25,1.25,1.25h35.92c0.69,0,1.25-0.56,1.25-1.25v-11.56c0-0.69-0.56-1.25-1.25-1.25H101.16z"/>
	<text transform="matrix(0.7 0 0 0.7 112.1134 114.0684)" class="st3 st4 st5">jpg</text>
</g>
</svg>
